<svg width="177" height="70" viewBox="0 0 177 70" fill="none" xmlns="http://www.w3.org/2000/svg">
<rect x="2.3125" y="1.5" width="173" height="67" fill="black"/>
<rect x="2.3125" y="1.5" width="173" height="67" stroke="#2F2F2F" stroke-width="3"/>
<path d="M66.5715 19.1298H68.961V21.1809H66.5715V26.9751H64.0715V14.0262H66.5715V19.1298ZM52.5936 19.6823C52.589 18.8214 52.8008 18.0479 53.2289 17.3619C53.6617 16.6713 54.2487 16.1326 54.99 15.7459C55.7358 15.3591 56.56 15.1657 57.4624 15.1657C58.3602 15.1657 59.1774 15.3591 59.914 15.7459C60.6553 16.1326 61.24 16.6713 61.6682 17.3619C62.0963 18.0479 62.3127 18.8214 62.3173 19.6823C62.3127 20.5387 62.0963 21.3122 61.6682 22.0028C61.24 22.6888 60.6553 23.2274 59.914 23.6188C59.1774 24.0055 58.3602 24.1989 57.4624 24.1989C56.56 24.1989 55.7358 24.0032 54.99 23.6119C54.2487 23.2205 53.6617 22.6819 53.2289 21.9959C52.8008 21.3052 52.589 20.5341 52.5936 19.6823ZM55.0314 19.6823C55.0268 20.1519 55.1304 20.564 55.3422 20.9185C55.5586 21.273 55.8509 21.547 56.2193 21.7403C56.5922 21.9291 57.0066 22.0235 57.4624 22.0235C57.9182 22.0235 58.3302 21.9291 58.6986 21.7403C59.0669 21.547 59.3569 21.2753 59.5687 20.9254C59.7805 20.5709 59.8864 20.1565 59.8864 19.6823C59.8864 19.2035 59.7805 18.7868 59.5687 18.4323C59.3569 18.0778 59.0669 17.8062 58.6986 17.6174C58.3348 17.4286 57.9228 17.3343 57.4624 17.3343C57.0066 17.3343 56.5922 17.4286 56.2193 17.6174C55.8509 17.8062 55.5586 18.0778 55.3422 18.4323C55.1304 18.7868 55.0268 19.2035 55.0314 19.6823ZM55.0383 25.6077H57.5245V29.482H67.2068V31.4917H55.0383V25.6077ZM84.7337 27.0166H82.2475V20.6492H79.3401V18.6395H82.2475V14.0401H84.7337V27.0166ZM69.6508 23.018C70.5947 22.7187 71.3866 22.2836 72.0265 21.7127C72.6665 21.1418 73.1407 20.4926 73.4492 19.7652C73.7623 19.0378 73.9211 18.2827 73.9257 17.5V17.2307H70.3622V15.2348H80.003V17.2307H76.4602V17.5138C76.4602 18.2274 76.6076 18.925 76.9022 19.6064C77.2015 20.2831 77.6573 20.8955 78.2696 21.4434C78.8866 21.9866 79.6462 22.4056 80.5486 22.7003L79.3193 24.6754C78.3617 24.3623 77.5399 23.9019 76.8539 23.2942C76.1679 22.6819 75.6246 21.9613 75.224 21.1326C74.8189 22.0488 74.2549 22.843 73.532 23.5152C72.8138 24.1874 71.946 24.6938 70.9285 25.0345L69.6508 23.018ZM72.9381 25.884H75.4243V29.482H85.155V31.4917H72.9381V25.884ZM107.885 24.6616H101.166V27.7555H98.6379V24.6616H91.6282V22.6865H107.885V24.6616ZM93.3064 18.0525C93.3064 17.3112 93.5734 16.6621 94.1075 16.105C94.6416 15.5479 95.3944 15.1197 96.3658 14.8204C97.3373 14.5166 98.463 14.3646 99.7429 14.3646C101.023 14.3646 102.146 14.5166 103.113 14.8204C104.084 15.1197 104.837 15.5479 105.371 16.105C105.905 16.6575 106.172 17.3066 106.172 18.0525C106.172 18.7937 105.905 19.4406 105.371 19.9931C104.837 20.5456 104.084 20.9715 103.113 21.2707C102.146 21.5654 101.023 21.7127 99.7429 21.7127C98.463 21.7127 97.335 21.5654 96.3589 21.2707C95.3874 20.9715 94.6347 20.5456 94.1006 19.9931C93.5711 19.4406 93.3064 18.7937 93.3064 18.0525ZM93.5619 26.1671H96.0758V29.4682H106.096V31.4917H93.5619V26.1671ZM95.9998 18.0525C95.9952 18.407 96.1448 18.7109 96.4487 18.9641C96.7525 19.2127 97.1853 19.4015 97.747 19.5304C98.3133 19.6547 98.9786 19.7192 99.7429 19.7238C100.512 19.7192 101.177 19.6547 101.739 19.5304C102.305 19.4015 102.74 19.2127 103.044 18.9641C103.348 18.7109 103.5 18.407 103.5 18.0525C103.5 17.6842 103.348 17.3711 103.044 17.1133C102.745 16.8554 102.317 16.6621 101.759 16.5331C101.202 16.3996 100.544 16.3329 99.7843 16.3329C99.0062 16.3329 98.3317 16.3973 97.7608 16.5262C97.1945 16.6552 96.7572 16.8485 96.4487 17.1064C96.1448 17.3642 95.9952 17.6796 95.9998 18.0525ZM123.913 27.0166H121.427V20.6492H118.52V18.6395H121.427V14.0401H123.913V27.0166ZM108.831 23.018C109.774 22.7187 110.566 22.2836 111.206 21.7127C111.846 21.1418 112.32 20.4926 112.629 19.7652C112.942 19.0378 113.101 18.2827 113.105 17.5V17.2307H109.542V15.2348H119.183V17.2307H115.64V17.5138C115.64 18.2274 115.787 18.925 116.082 19.6064C116.381 20.2831 116.837 20.8955 117.449 21.4434C118.066 21.9866 118.826 22.4056 119.728 22.7003L118.499 24.6754C117.541 24.3623 116.72 23.9019 116.034 23.2942C115.348 22.6819 114.804 21.9613 114.404 21.1326C113.999 22.0488 113.435 22.843 112.712 23.5152C111.994 24.1874 111.126 24.6938 110.108 25.0345L108.831 23.018ZM112.118 25.884H114.604V29.482H124.335V31.4917H112.118V25.884Z" fill="#1EFF00"/>
<path d="M66.5715 41.9075H68.961V43.9517H66.5715V47.9572H64.0715V38.0124H66.5715V41.9075ZM52.269 46.3757C53.5765 46.0534 54.6999 45.6275 55.6392 45.0981C56.5784 44.564 57.3173 43.954 57.856 43.268C58.3947 42.582 58.7308 41.8407 58.8643 41.0442H53.1461V39.0622H61.5853C61.5853 40.6183 61.263 42.011 60.6184 43.2403C59.9739 44.465 59.0323 45.5078 57.7939 46.3688C56.5554 47.2297 55.0429 47.895 53.2566 48.3646L52.269 46.3757ZM54.9347 48.6271H66.5715V55.5815H54.9347V48.6271ZM64.106 53.6271V50.6367H57.414V53.6271H64.106ZM85.9699 48.6616H69.7544V46.6657H76.5983V44.3177H79.0707V46.6657H85.9699V48.6616ZM70.5832 43.4268C71.8447 43.2703 72.9266 42.9641 73.829 42.5083C74.7314 42.0525 75.4105 41.5092 75.8663 40.8785C76.3267 40.2477 76.5592 39.5893 76.5638 38.9033V38.3163H79.0983V38.9033C79.0983 39.6123 79.3239 40.2822 79.7751 40.913C80.2263 41.5437 80.9031 42.0824 81.8055 42.529C82.7079 42.971 83.8037 43.2703 85.0928 43.4268L84.1329 45.3743C82.6504 45.1533 81.3658 44.7413 80.2793 44.1381C79.1973 43.5304 78.3732 42.7776 77.8069 41.8798C77.236 42.7776 76.4073 43.5304 75.3207 44.1381C74.2388 44.7413 72.9565 45.1533 71.474 45.3743L70.5832 43.4268ZM71.55 49.9254H83.9948V55.8025H81.5017V51.8591H71.55V49.9254ZM107.864 49.8218H100.938V55.8025H98.4722V49.8218H91.649V47.826H107.864V49.8218ZM92.4432 44.8425C93.6034 44.7044 94.6071 44.4374 95.4542 44.0414C96.306 43.6455 96.9689 43.1736 97.4432 42.6257C97.922 42.0778 98.2074 41.5046 98.2995 40.9061H93.113V38.9586H106.407V40.9061H101.228C101.311 41.5046 101.587 42.0778 102.056 42.6257C102.531 43.1736 103.194 43.6455 104.045 44.0414C104.902 44.4374 105.917 44.7044 107.091 44.8425L106.186 46.797C104.653 46.5898 103.334 46.1754 102.229 45.5539C101.129 44.9277 100.305 44.1496 99.7567 43.2196C99.2088 44.1496 98.3847 44.9277 97.2843 45.5539C96.1886 46.1754 94.881 46.5898 93.3617 46.797L92.4432 44.8425ZM124.203 49.1657H121.842V44.4558H120.412V48.5856H118.085V38.3508H120.412V42.4254H121.842V38.0124H124.203V49.1657ZM108.837 39.8494H111.973V38.1782H114.445V39.8494H117.567V41.7831H108.837V39.8494ZM109.376 45.4917C109.376 44.8794 109.54 44.3384 109.866 43.8688C110.198 43.3946 110.656 43.0285 111.241 42.7707C111.825 42.5129 112.486 42.384 113.223 42.384C113.973 42.384 114.643 42.5129 115.232 42.7707C115.822 43.0285 116.282 43.3946 116.614 43.8688C116.945 44.3384 117.111 44.8794 117.111 45.4917C117.111 46.0948 116.943 46.6289 116.607 47.0939C116.275 47.5589 115.815 47.9203 115.226 48.1782C114.641 48.436 113.973 48.5649 113.223 48.5649C112.486 48.5649 111.825 48.436 111.241 48.1782C110.656 47.9203 110.198 47.5589 109.866 47.0939C109.54 46.6289 109.376 46.0948 109.376 45.4917ZM111.6 45.4917C111.6 45.8923 111.745 46.2099 112.035 46.4448C112.33 46.6796 112.719 46.797 113.202 46.797C113.704 46.797 114.104 46.6819 114.404 46.4517C114.703 46.2169 114.855 45.8969 114.86 45.4917C114.855 45.0773 114.703 44.7528 114.404 44.518C114.109 44.2831 113.715 44.1703 113.223 44.1796C112.735 44.1703 112.341 44.2831 112.042 44.518C111.747 44.7528 111.6 45.0773 111.6 45.4917ZM111.98 52.5704C111.975 51.889 112.217 51.3066 112.705 50.8232C113.197 50.3398 113.906 49.9715 114.832 49.7182C115.757 49.465 116.855 49.3384 118.126 49.3384C119.406 49.3384 120.506 49.465 121.427 49.7182C122.353 49.9715 123.062 50.3398 123.554 50.8232C124.047 51.3066 124.293 51.889 124.293 52.5704C124.293 53.2518 124.047 53.8343 123.554 54.3177C123.062 54.8011 122.353 55.1671 121.427 55.4157C120.506 55.669 119.406 55.7956 118.126 55.7956C116.855 55.7956 115.757 55.669 114.832 55.4157C113.906 55.1671 113.197 54.8011 112.705 54.3177C112.217 53.8343 111.975 53.2518 111.98 52.5704ZM114.466 52.5704C114.461 53.017 114.763 53.3531 115.371 53.5787C115.983 53.8043 116.883 53.9171 118.071 53.9171C120.543 53.9171 121.782 53.4682 121.786 52.5704C121.782 52.11 121.48 51.767 120.882 51.5414C120.283 51.3158 119.383 51.203 118.181 51.203C116.943 51.203 116.013 51.3158 115.391 51.5414C114.77 51.7624 114.461 52.1054 114.466 52.5704Z" fill="#F6FF00"/>
</svg>
