<svg width="176" height="70" viewBox="0 0 176 70" fill="none" xmlns="http://www.w3.org/2000/svg">
<rect x="1.5" y="1.5" width="173" height="67" fill="black"/>
<rect x="1.5" y="1.5" width="173" height="67" stroke="#2F2F2F" stroke-width="3"/>
<path d="M44.9094 19.1298H47.2989V21.1809H44.9094V26.9751H42.4094V14.0262H44.9094V19.1298ZM30.9315 19.6823C30.9269 18.8214 31.1387 18.0479 31.5668 17.3619C31.9996 16.6713 32.5866 16.1326 33.3279 15.7459C34.0737 15.3591 34.8979 15.1657 35.8003 15.1657C36.698 15.1657 37.5153 15.3591 38.2519 15.7459C38.9932 16.1326 39.5779 16.6713 40.0061 17.3619C40.4342 18.0479 40.6506 18.8214 40.6552 19.6823C40.6506 20.5387 40.4342 21.3122 40.0061 22.0028C39.5779 22.6888 38.9932 23.2274 38.2519 23.6188C37.5153 24.0055 36.698 24.1989 35.8003 24.1989C34.8979 24.1989 34.0737 24.0032 33.3279 23.6119C32.5866 23.2205 31.9996 22.6819 31.5668 21.9959C31.1387 21.3052 30.9269 20.5341 30.9315 19.6823ZM33.3693 19.6823C33.3647 20.1519 33.4683 20.564 33.6801 20.9185C33.8965 21.273 34.1888 21.547 34.5572 21.7403C34.9301 21.9291 35.3445 22.0235 35.8003 22.0235C36.2561 22.0235 36.6681 21.9291 37.0364 21.7403C37.4048 21.547 37.6948 21.2753 37.9066 20.9254C38.1184 20.5709 38.2243 20.1565 38.2243 19.6823C38.2243 19.2035 38.1184 18.7868 37.9066 18.4323C37.6948 18.0778 37.4048 17.8062 37.0364 17.6174C36.6727 17.4286 36.2607 17.3343 35.8003 17.3343C35.3445 17.3343 34.9301 17.4286 34.5572 17.6174C34.1888 17.8062 33.8965 18.0778 33.6801 18.4323C33.4683 18.7868 33.3647 19.2035 33.3693 19.6823ZM33.3762 25.6077H35.8624V29.482H45.5447V31.4917H33.3762V25.6077ZM54.805 16.4365C54.8004 17.256 54.9431 18.0272 55.2332 18.75C55.5233 19.4682 55.9721 20.1013 56.5799 20.6492C57.1922 21.1971 57.9588 21.6137 58.8796 21.8992L57.5536 23.8467C56.619 23.5244 55.8225 23.0686 55.1641 22.4793C54.5058 21.89 53.9855 21.1855 53.6034 20.366C53.1936 21.3191 52.625 22.1409 51.8976 22.8315C51.1701 23.5221 50.2861 24.0424 49.2456 24.3923L47.9197 22.4033C48.9003 22.0856 49.7152 21.6298 50.3644 21.0359C51.0182 20.442 51.5016 19.7629 51.8147 18.9986C52.1278 18.2297 52.2866 17.4148 52.2912 16.5539V14.9448H54.805V16.4365ZM50.8893 28.3564C50.8893 27.6335 51.1333 27.0143 51.6213 26.4986C52.1093 25.9784 52.8115 25.5824 53.7277 25.3108C54.6485 25.0345 55.7373 24.8964 56.9942 24.8964C58.2558 24.8964 59.3446 25.0345 60.2608 25.3108C61.1816 25.5824 61.8884 25.9784 62.381 26.4986C62.8736 27.0143 63.1199 27.6335 63.1199 28.3564C63.1199 29.0792 62.8736 29.6984 62.381 30.2141C61.8884 30.7343 61.1816 31.128 60.2608 31.395C59.3446 31.6621 58.2558 31.7956 56.9942 31.7956C55.7327 31.7956 54.6439 31.6621 53.7277 31.395C52.8115 31.128 52.1093 30.7343 51.6213 30.2141C51.1333 29.6984 50.8893 29.0792 50.8893 28.3564ZM53.3686 28.3564C53.364 28.8444 53.6678 29.2173 54.2802 29.4751C54.8925 29.7284 55.7811 29.855 56.9459 29.855C58.1476 29.855 59.0638 29.7284 59.6945 29.4751C60.3253 29.2219 60.643 28.849 60.6476 28.3564C60.643 27.8499 60.3299 27.4701 59.7083 27.2169C59.0868 26.959 58.1821 26.8301 56.9942 26.8301C55.811 26.8301 54.9086 26.959 54.2871 27.2169C53.6701 27.4701 53.364 27.8499 53.3686 28.3564ZM57.2498 17.279H60.5854V14.0124H63.0716V24.4406H60.5854V19.3163H57.2498V17.279ZM73.5849 30H70.6498V15.8564H73.5849V30ZM85.4363 20.7873C85.358 20.2716 85.1785 19.825 84.8976 19.4475C84.6168 19.0654 84.2576 18.773 83.8203 18.5704C83.3829 18.3679 82.8925 18.2666 82.3493 18.2666C81.6126 18.2666 80.968 18.4507 80.4156 18.8191C79.8677 19.1828 79.4418 19.7145 79.1379 20.4144C78.8387 21.1142 78.689 21.9521 78.689 22.9282C78.689 23.9273 78.841 24.7767 79.1448 25.4765C79.4487 26.1717 79.8746 26.6989 80.4225 27.058C80.9704 27.4125 81.608 27.5898 82.3355 27.5898C82.8695 27.5898 83.3529 27.4954 83.7857 27.3066C84.2185 27.1133 84.5776 26.837 84.8631 26.4779C85.1485 26.1188 85.3396 25.6883 85.4363 25.1865L88.4059 25.2003C88.2908 26.0935 87.9731 26.9199 87.4529 27.6796C86.9326 28.4392 86.2282 29.0493 85.3396 29.5097C84.4556 29.9655 83.4381 30.1934 82.2871 30.1934C81.0164 30.1934 79.8838 29.9056 78.8893 29.3301C77.8994 28.7546 77.1214 27.919 76.5551 26.8232C75.9934 25.7274 75.7125 24.4291 75.7125 22.9282C75.7125 21.4273 75.9957 20.1289 76.562 19.0331C77.1329 17.9374 77.9156 17.1017 78.91 16.5262C79.9045 15.9507 81.0302 15.663 82.2871 15.663C83.3783 15.663 84.3612 15.8656 85.236 16.2707C86.1108 16.6759 86.8244 17.2652 87.3769 18.0387C87.934 18.8076 88.277 19.7238 88.4059 20.7873H85.4363ZM100.955 16.3881C100.95 17.1662 101.095 17.9098 101.39 18.6188C101.685 19.3232 102.138 19.9517 102.75 20.5041C103.363 21.0566 104.127 21.4802 105.043 21.7749L103.71 23.7155C102.803 23.3978 102.018 22.9443 101.355 22.355C100.697 21.761 100.172 21.0612 99.7807 20.2555C99.3756 21.1901 98.8139 21.9982 98.0957 22.6796C97.3774 23.361 96.5096 23.8789 95.4921 24.2334L94.1523 22.2652C95.1099 21.9475 95.9087 21.4917 96.5487 20.8978C97.1933 20.2993 97.6698 19.6202 97.9783 18.8605C98.2867 18.0962 98.4433 17.2951 98.4479 16.4572V14.9378H100.955V16.3881ZM96.8802 25H108.503V31.6022H96.8802V25ZM106.038 29.6064V26.9751H99.3388V29.6064H106.038ZM106.003 14.0124H108.503V18.0801H110.893V20.0967H108.503V24.3094H106.003V14.0124ZM126.658 31.8025H124.179V22.8936H120.65V20.8564H124.179V14.0124H126.658V31.8025ZM111.513 26.7541C112.991 26.0267 114.202 25.2233 115.146 24.3439C116.094 23.4599 116.813 22.4862 117.301 21.4227C117.793 20.3591 118.102 19.1644 118.226 17.8384H112.342V15.884H120.747C120.742 17.7855 120.498 19.5028 120.015 21.0359C119.536 22.5691 118.712 23.9825 117.542 25.2762C116.373 26.57 114.787 27.7118 112.784 28.7017L111.513 26.7541ZM143.861 31.8439H141.381V14.0124H143.861V31.8439ZM129.91 15.511H138.357V22.3619H132.493V25.6285C133.921 25.6192 135.235 25.5686 136.437 25.4765C137.638 25.3844 138.863 25.2348 140.111 25.0276L140.325 27.0511C138.957 27.2951 137.592 27.4609 136.23 27.5483C134.871 27.6358 133.301 27.6796 131.52 27.6796H129.924V20.4006H135.815V17.5207H129.91V15.511Z" fill="white"/>
<path d="M58.0794 43.5925C58.0748 44.4627 58.2244 45.3306 58.5283 46.1961C58.8368 47.0617 59.3018 47.8559 59.9233 48.5787C60.5449 49.3016 61.3092 49.8771 62.2162 50.3052L60.828 52.1906C59.9072 51.7716 59.113 51.1731 58.4454 50.395C57.7779 49.6123 57.2507 48.7076 56.864 47.6809C56.468 48.7905 55.9155 49.7643 55.2065 50.6022C54.4975 51.4401 53.6549 52.0709 52.6789 52.4945L51.3115 50.5677C52.2415 50.1579 53.0288 49.5801 53.6733 48.8343C54.3179 48.0838 54.799 47.2528 55.1167 46.3412C55.439 45.4296 55.6024 44.5134 55.607 43.5925V42.9019H51.933V40.9199H55.5932V38.4199H58.1001V40.9199H61.712V42.9019H58.0794V43.5925ZM63.183 38.0124H65.6761V44.9254H68.3004V47.011H65.6761V55.8025H63.183V38.0124ZM85.4475 42.4807H83.0441V44.1727H85.4475V46.2238H83.0441V48.7583H80.5441V38.0401H83.0441V40.4157H85.4475V42.4807ZM69.5566 39.0898H77.7334V44.3798H72.0704V45.9475C73.6035 45.9383 74.9111 45.8969 75.993 45.8232C77.0796 45.7495 78.1661 45.6183 79.2527 45.4296L79.5151 47.4116C78.3411 47.6372 77.1509 47.7891 75.9447 47.8674C74.743 47.9457 73.2352 47.9848 71.4212 47.9848H71.0759H69.5842V42.5221H75.3024V41.0511H69.5566V39.0898ZM71.0897 52.453C71.0897 51.7486 71.3337 51.1409 71.8218 50.6298C72.3144 50.1142 73.0165 49.7182 73.9281 49.442C74.8443 49.1657 75.9263 49.0276 77.174 49.0276C78.4033 49.0276 79.4714 49.1657 80.3784 49.442C81.2854 49.7182 81.9829 50.1142 82.4709 50.6298C82.9636 51.1409 83.2099 51.7486 83.2099 52.453C83.2099 53.1483 82.9636 53.7445 82.4709 54.2417C81.9829 54.7436 81.2854 55.1234 80.3784 55.3812C79.4714 55.6436 78.4033 55.7749 77.174 55.7749C75.9263 55.7749 74.8443 55.6436 73.9281 55.3812C73.0165 55.1234 72.3144 54.7436 71.8218 54.2417C71.3337 53.7445 71.0897 53.1483 71.0897 52.453ZM73.5483 52.453C73.5437 52.9365 73.8452 53.3025 74.453 53.5511C75.0607 53.7951 75.9516 53.9171 77.1256 53.9171C78.3181 53.9171 79.2205 53.7951 79.8328 53.5511C80.4451 53.3071 80.7513 52.9411 80.7513 52.453C80.7513 51.9604 80.4498 51.5898 79.8466 51.3412C79.2435 51.0879 78.3526 50.9613 77.174 50.9613C75.9861 50.9613 75.0837 51.0879 74.4668 51.3412C73.8498 51.5898 73.5437 51.9604 73.5483 52.453ZM107.052 48.2196H90.8365V46.2099H107.052V48.2196ZM91.5478 43.6133C92.6159 43.512 93.5436 43.3255 94.3309 43.0539C95.1182 42.7776 95.7444 42.4484 96.2094 42.0663C96.6744 41.6842 96.9806 41.2767 97.1279 40.8439H92.3075V38.8343H105.588V40.8439H100.726C100.869 41.2767 101.173 41.6842 101.638 42.0663C102.103 42.4484 102.733 42.7776 103.53 43.0539C104.326 43.3255 105.27 43.512 106.361 43.6133L105.491 45.5539C104.391 45.448 103.403 45.2454 102.528 44.9461C101.654 44.6469 100.912 44.2693 100.305 43.8135C99.7016 43.3531 99.2388 42.8329 98.9166 42.2528C98.5989 42.8329 98.1408 43.3531 97.5423 43.8135C96.9437 44.2693 96.2094 44.6469 95.3392 44.9461C94.4691 45.2454 93.4838 45.448 92.3834 45.5539L91.5478 43.6133ZM92.6873 52.5083C92.6873 51.8177 92.9359 51.2261 93.4331 50.7334C93.9304 50.2408 94.644 49.8656 95.574 49.6077C96.5086 49.3453 97.6205 49.2141 98.9097 49.2141C100.19 49.2141 101.292 49.3453 102.218 49.6077C103.148 49.8656 103.859 50.2408 104.352 50.7334C104.849 51.2261 105.1 51.8177 105.104 52.5083C105.1 53.2035 104.849 53.7974 104.352 54.2901C103.859 54.7827 103.15 55.1556 102.225 55.4088C101.299 55.6667 100.194 55.7956 98.9097 55.7956C97.6205 55.7956 96.5086 55.6667 95.574 55.4088C94.6394 55.1556 93.9235 54.7827 93.4262 54.2901C92.9336 53.7974 92.6873 53.2035 92.6873 52.5083ZM95.2287 52.5083C95.2241 52.9641 95.5211 53.3025 96.1196 53.5235C96.7227 53.7445 97.6343 53.855 98.8544 53.855C100.098 53.855 101.032 53.7468 101.658 53.5304C102.284 53.3094 102.6 52.9687 102.604 52.5083C102.6 51.6059 101.368 51.1501 98.9097 51.1409C97.6712 51.1455 96.7458 51.2606 96.1334 51.4862C95.5257 51.7072 95.2241 52.0479 95.2287 52.5083ZM122.141 44.8287H124.655V46.8867H122.141V55.761H119.648V38.0124H122.141V44.8287ZM107.928 50.7818C110.042 49.7182 111.664 48.4613 112.797 47.011C113.934 45.5562 114.62 43.8435 114.855 41.8729H108.93V39.8356H117.396C117.387 42.6671 116.752 45.1671 115.49 47.3356C114.233 49.5041 112.18 51.2882 109.33 52.6878L107.928 50.7818Z" fill="#F7FF00"/>
</svg>
