<svg width="176" height="40" viewBox="0 0 176 40" fill="none" xmlns="http://www.w3.org/2000/svg">
<rect x="1.5" y="1.5" width="173" height="37" fill="black"/>
<rect x="1.5" y="1.5" width="173" height="37" stroke="#2F2F2F" stroke-width="3"/>
<path d="M26.5793 16.1298H28.9688V18.1809H26.5793V23.9751H24.0793V11.0262H26.5793V16.1298ZM12.6014 16.6823C12.5968 15.8214 12.8086 15.0479 13.2367 14.3619C13.6695 13.6713 14.2565 13.1326 14.9978 12.7459C15.7437 12.3591 16.5678 12.1657 17.4702 12.1657C18.368 12.1657 19.1852 12.3591 19.9218 12.7459C20.6631 13.1326 21.2478 13.6713 21.676 14.3619C22.1042 15.0479 22.3205 15.8214 22.3251 16.6823C22.3205 17.5387 22.1042 18.3122 21.676 19.0028C21.2478 19.6888 20.6631 20.2274 19.9218 20.6188C19.1852 21.0055 18.368 21.1989 17.4702 21.1989C16.5678 21.1989 15.7437 21.0032 14.9978 20.6119C14.2565 20.2205 13.6695 19.6819 13.2367 18.9959C12.8086 18.3052 12.5968 17.5341 12.6014 16.6823ZM15.0392 16.6823C15.0346 17.1519 15.1382 17.564 15.35 17.9185C15.5664 18.273 15.8588 18.547 16.2271 18.7403C16.6 18.9291 17.0144 19.0235 17.4702 19.0235C17.926 19.0235 18.338 18.9291 18.7064 18.7403C19.0747 18.547 19.3647 18.2753 19.5765 17.9254C19.7883 17.5709 19.8942 17.1565 19.8942 16.6823C19.8942 16.2035 19.7883 15.7868 19.5765 15.4323C19.3647 15.0778 19.0747 14.8062 18.7064 14.6174C18.3426 14.4286 17.9306 14.3343 17.4702 14.3343C17.0144 14.3343 16.6 14.4286 16.2271 14.6174C15.8588 14.8062 15.5664 15.0778 15.35 15.4323C15.1382 15.7868 15.0346 16.2035 15.0392 16.6823ZM15.0461 22.6077H17.5323V26.482H27.2147V28.4917H15.0461V22.6077ZM44.7415 24.0166H42.2553V17.6492H39.3479V15.6395H42.2553V11.0401H44.7415V24.0166ZM29.6586 20.018C30.6025 19.7187 31.3944 19.2836 32.0343 18.7127C32.6743 18.1418 33.1485 17.4926 33.457 16.7652C33.7701 16.0378 33.9289 15.2827 33.9335 14.5V14.2307H30.37V12.2348H40.0109V14.2307H36.468V14.5138C36.468 15.2274 36.6154 15.925 36.91 16.6064C37.2093 17.2831 37.6651 17.8955 38.2774 18.4434C38.8944 18.9866 39.654 19.4056 40.5564 19.7003L39.3272 21.6754C38.3695 21.3623 37.5477 20.9019 36.8617 20.2942C36.1757 19.6819 35.6324 18.9613 35.2319 18.1326C34.8267 19.0488 34.2627 19.843 33.5399 20.5152C32.8216 21.1874 31.9538 21.6938 30.9363 22.0345L29.6586 20.018ZM32.9459 22.884H35.4321V26.482H45.1628V28.4917H32.9459V22.884ZM67.893 21.6616H61.1733V24.7555H58.6457V21.6616H51.636V19.6865H67.893V21.6616ZM53.3142 15.0525C53.3142 14.3112 53.5813 13.6621 54.1153 13.105C54.6494 12.5479 55.4022 12.1197 56.3736 11.8204C57.3451 11.5166 58.4708 11.3646 59.7507 11.3646C61.0306 11.3646 62.154 11.5166 63.1209 11.8204C64.0923 12.1197 64.8451 12.5479 65.3791 13.105C65.9132 13.6575 66.1802 14.3066 66.1802 15.0525C66.1802 15.7937 65.9132 16.4406 65.3791 16.9931C64.8451 17.5456 64.0923 17.9715 63.1209 18.2707C62.154 18.5654 61.0306 18.7127 59.7507 18.7127C58.4708 18.7127 57.3428 18.5654 56.3667 18.2707C55.3953 17.9715 54.6425 17.5456 54.1084 16.9931C53.579 16.4406 53.3142 15.7937 53.3142 15.0525ZM53.5698 23.1671H56.0836V26.4682H66.1043V28.4917H53.5698V23.1671ZM56.0076 15.0525C56.003 15.407 56.1526 15.7109 56.4565 15.9641C56.7604 16.2127 57.1931 16.4015 57.7548 16.5304C58.3211 16.6547 58.9864 16.7192 59.7507 16.7238C60.5196 16.7192 61.1849 16.6547 61.7465 16.5304C62.3128 16.4015 62.7479 16.2127 63.0518 15.9641C63.3557 15.7109 63.5076 15.407 63.5076 15.0525C63.5076 14.6842 63.3557 14.3711 63.0518 14.1133C62.7525 13.8554 62.3244 13.6621 61.7673 13.5331C61.2102 13.3996 60.5518 13.3329 59.7921 13.3329C59.014 13.3329 58.3395 13.3973 57.7686 13.5262C57.2023 13.6552 56.765 13.8485 56.4565 14.1064C56.1526 14.3642 56.003 14.6796 56.0076 15.0525ZM83.9212 24.0166H81.435V17.6492H78.5276V15.6395H81.435V11.0401H83.9212V24.0166ZM68.8383 20.018C69.7822 19.7187 70.5741 19.2836 71.214 18.7127C71.854 18.1418 72.3282 17.4926 72.6367 16.7652C72.9498 16.0378 73.1086 15.2827 73.1132 14.5V14.2307H69.5497V12.2348H79.1905V14.2307H75.6477V14.5138C75.6477 15.2274 75.7951 15.925 76.0897 16.6064C76.389 17.2831 76.8448 17.8955 77.4571 18.4434C78.0741 18.9866 78.8337 19.4056 79.7361 19.7003L78.5068 21.6754C77.5492 21.3623 76.7274 20.9019 76.0414 20.2942C75.3554 19.6819 74.8121 18.9613 74.4115 18.1326C74.0064 19.0488 73.4424 19.843 72.7195 20.5152C72.0013 21.1874 71.1335 21.6938 70.116 22.0345L68.8383 20.018ZM72.1256 22.884H74.6118V26.482H84.3425V28.4917H72.1256V22.884Z" fill="#1EFF00"/>
<path d="M104.939 14.9075H107.328V16.9517H104.939V20.9572H102.439V11.0124H104.939V14.9075ZM90.6362 19.3757C91.9437 19.0534 93.0671 18.6275 94.0063 18.0981C94.9456 17.564 95.6845 16.954 96.2232 16.268C96.7619 15.582 97.098 14.8407 97.2315 14.0442H91.5133V12.0622H99.9525C99.9525 13.6183 99.6302 15.011 98.9856 16.2403C98.3411 17.465 97.3995 18.5078 96.161 19.3688C94.9226 20.2297 93.4101 20.895 91.6237 21.3646L90.6362 19.3757ZM93.3019 21.6271H104.939V28.5815H93.3019V21.6271ZM102.473 26.6271V23.6367H95.7812V26.6271H102.473ZM124.337 21.6616H108.122V19.6657H114.966V17.3177H117.438V19.6657H124.337V21.6616ZM108.95 16.4268C110.212 16.2703 111.294 15.9641 112.196 15.5083C113.099 15.0525 113.778 14.5092 114.233 13.8785C114.694 13.2477 114.926 12.5893 114.931 11.9033V11.3163H117.466V11.9033C117.466 12.6123 117.691 13.2822 118.142 13.913C118.594 14.5437 119.27 15.0824 120.173 15.529C121.075 15.971 122.171 16.2703 123.46 16.4268L122.5 18.3743C121.018 18.1533 119.733 17.7413 118.646 17.1381C117.565 16.5304 116.74 15.7776 116.174 14.8798C115.603 15.7776 114.774 16.5304 113.688 17.1381C112.606 17.7413 111.324 18.1533 109.841 18.3743L108.95 16.4268ZM109.917 22.9254H122.362V28.8025H119.869V24.8591H109.917V22.9254ZM146.232 22.8218H139.305V28.8025H136.839V22.8218H130.016V20.826H146.232V22.8218ZM130.81 17.8425C131.971 17.7044 132.974 17.4374 133.821 17.0414C134.673 16.6455 135.336 16.1736 135.81 15.6257C136.289 15.0778 136.575 14.5046 136.667 13.9061H131.48V11.9586H144.774V13.9061H139.595C139.678 14.5046 139.954 15.0778 140.424 15.6257C140.898 16.1736 141.561 16.6455 142.413 17.0414C143.269 17.4374 144.284 17.7044 145.458 17.8425L144.553 19.797C143.02 19.5898 141.701 19.1754 140.596 18.5539C139.496 17.9277 138.672 17.1496 138.124 16.2196C137.576 17.1496 136.752 17.9277 135.652 18.5539C134.556 19.1754 133.248 19.5898 131.729 19.797L130.81 17.8425ZM162.571 22.1657H160.209V17.4558H158.779V21.5856H156.452V11.3508H158.779V15.4254H160.209V11.0124H162.571V22.1657ZM147.205 12.8494H150.34V11.1782H152.812V12.8494H155.934V14.7831H147.205V12.8494ZM147.743 18.4917C147.743 17.8794 147.907 17.3384 148.234 16.8688C148.565 16.3946 149.023 16.0285 149.608 15.7707C150.193 15.5129 150.853 15.384 151.59 15.384C152.34 15.384 153.01 15.5129 153.6 15.7707C154.189 16.0285 154.649 16.3946 154.981 16.8688C155.312 17.3384 155.478 17.8794 155.478 18.4917C155.478 19.0948 155.31 19.6289 154.974 20.0939C154.642 20.5589 154.182 20.9203 153.593 21.1782C153.008 21.436 152.34 21.5649 151.59 21.5649C150.853 21.5649 150.193 21.436 149.608 21.1782C149.023 20.9203 148.565 20.5589 148.234 20.0939C147.907 19.6289 147.743 19.0948 147.743 18.4917ZM149.967 18.4917C149.967 18.8923 150.112 19.2099 150.402 19.4448C150.697 19.6796 151.086 19.797 151.569 19.797C152.071 19.797 152.472 19.6819 152.771 19.4517C153.07 19.2169 153.222 18.8969 153.227 18.4917C153.222 18.0773 153.07 17.7528 152.771 17.518C152.476 17.2831 152.083 17.1703 151.59 17.1796C151.102 17.1703 150.708 17.2831 150.409 17.518C150.114 17.7528 149.967 18.0773 149.967 18.4917ZM150.347 25.5704C150.342 24.889 150.584 24.3066 151.072 23.8232C151.565 23.3398 152.274 22.9715 153.199 22.7182C154.125 22.465 155.223 22.3384 156.493 22.3384C157.773 22.3384 158.874 22.465 159.794 22.7182C160.72 22.9715 161.429 23.3398 161.921 23.8232C162.414 24.3066 162.66 24.889 162.66 25.5704C162.66 26.2518 162.414 26.8343 161.921 27.3177C161.429 27.8011 160.72 28.1671 159.794 28.4157C158.874 28.669 157.773 28.7956 156.493 28.7956C155.223 28.7956 154.125 28.669 153.199 28.4157C152.274 28.1671 151.565 27.8011 151.072 27.3177C150.584 26.8343 150.342 26.2518 150.347 25.5704ZM152.833 25.5704C152.828 26.017 153.13 26.3531 153.738 26.5787C154.35 26.8043 155.25 26.9171 156.438 26.9171C158.91 26.9171 160.149 26.4682 160.154 25.5704C160.149 25.11 159.847 24.767 159.249 24.5414C158.65 24.3158 157.75 24.203 156.549 24.203C155.31 24.203 154.38 24.3158 153.758 24.5414C153.137 24.7624 152.828 25.1054 152.833 25.5704Z" fill="#F6FF00"/>
</svg>
