<svg width="16" height="19" viewBox="0 0 16 19" fill="none" xmlns="http://www.w3.org/2000/svg">
<path d="M14.625 7.41027C14.625 3.7425 11.6619 0.767334 8.00011 0.767334C4.33837 0.767334 1.37524 3.7425 1.37524 7.41027C1.37524 8.94604 1.89319 10.3553 2.76647 11.4816L8.00011 18.2329L13.2338 11.4876C14.107 10.3614 14.625 8.94604 14.625 7.4163V7.41027Z" stroke="#727272" stroke-linejoin="round"/>
<path d="M4.58733 8.19878H4.61836L5.43488 5.64631H6.20569L5.04948 8.99081H4.1562L3 5.64631H3.77243L4.58733 8.19878Z" fill="#727272"/>
<path d="M7.29623 5.64631L8.22543 7.91299H8.26463L9.19383 5.64631H10.0512V8.99081H9.37674V6.80088H9.34897L8.47692 8.97611H8.01314L7.14109 6.79272H7.11332V8.99081H6.44051V5.64631H7.29623Z" fill="#727272"/>
<path d="M12.2864 6.60328C12.2734 6.47046 12.2162 6.36703 12.115 6.293C12.0148 6.21897 11.8798 6.18195 11.71 6.18195C11.5956 6.18195 11.4971 6.19828 11.4144 6.23094C11.3327 6.26361 11.2701 6.30879 11.2266 6.36649C11.1841 6.42419 11.1629 6.49006 11.1629 6.56409C11.1607 6.67622 11.207 6.76441 11.3017 6.82864C11.3975 6.89288 11.5292 6.94459 11.6969 6.98378L11.999 7.05727C12.3071 7.12695 12.5504 7.24181 12.729 7.40184C12.9086 7.5608 12.999 7.77255 13.0001 8.0371C12.999 8.24069 12.9467 8.4176 12.8433 8.56785C12.741 8.71809 12.5923 8.83403 12.3975 8.91569C12.2037 8.99734 11.9729 9.03817 11.7051 9.03817C11.4351 9.03817 11.2004 8.99679 11.0012 8.91405C10.802 8.83131 10.6474 8.70883 10.5374 8.54662C10.4275 8.38331 10.3692 8.18408 10.3627 7.94892H11.0371C11.0448 8.05888 11.0769 8.15142 11.1335 8.22654C11.1912 8.30166 11.2679 8.35827 11.3637 8.39637C11.4606 8.43448 11.5717 8.45353 11.6969 8.45353C11.8166 8.45353 11.9217 8.43611 12.0121 8.40127C12.1035 8.36644 12.1737 8.31744 12.2227 8.2543C12.2728 8.19007 12.2979 8.11658 12.2979 8.03384C12.2979 7.9598 12.2761 7.8972 12.2325 7.84604C12.189 7.79378 12.1258 7.74969 12.0431 7.71376C11.9614 7.67674 11.8558 7.64245 11.7263 7.61088L11.3605 7.52106C10.753 7.37299 10.4498 7.06925 10.4509 6.60981C10.4498 6.41167 10.5037 6.23639 10.6125 6.08397C10.7214 5.93046 10.8717 5.81179 11.0633 5.72796C11.256 5.64305 11.4732 5.60059 11.7149 5.60059C11.9587 5.60059 12.1737 5.64305 12.3599 5.72796C12.5461 5.81179 12.6909 5.92992 12.7943 6.08234C12.8977 6.23367 12.9511 6.40731 12.9543 6.60328H12.2864Z" fill="#727272"/>
</svg>
