<svg width="16" height="18" viewBox="0 0 16 18" fill="none" xmlns="http://www.w3.org/2000/svg">
<path d="M11.5048 2.45248C9.56813 0.515839 6.43017 0.515839 4.49487 2.45248" stroke="#727272" stroke-linecap="round" stroke-linejoin="round"/>
<path d="M10.12 3.83408C8.9483 2.6624 7.04937 2.6624 5.87769 3.83408" stroke="#727272" stroke-linecap="round" stroke-linejoin="round"/>
<path d="M8.73642 5.21984C8.3297 4.81311 7.66844 4.81311 7.26172 5.21984H8.73642Z" fill="white"/>
<path d="M8.73642 5.21984C8.3297 4.81311 7.66844 4.81311 7.26172 5.21984" stroke="#727272" stroke-linecap="round" stroke-linejoin="round"/>
<path d="M13.8363 10.1607L12.5571 7.05449C12.3597 6.57524 11.8958 6.26318 11.381 6.26318H4.61887C4.10435 6.26318 3.64016 6.57555 3.44278 7.05449L2.16361 10.1607C1.47051 10.1607 0.908691 10.7271 0.908691 11.4258V15.1763C0.908691 15.4508 1.12942 15.6733 1.40168 15.6733H2.29307V16.9432C2.29307 17.527 2.76242 18.0001 3.34152 18.0001C3.92062 18.0001 4.38996 17.527 4.38996 16.9432V15.6733H11.6099V16.9432C11.6099 17.527 12.0793 18.0001 12.6584 18.0001C13.2375 18.0001 13.7068 17.527 13.7068 16.9432V15.6733H14.5982C14.8705 15.6733 15.0912 15.4508 15.0912 15.1763V11.4258C15.0912 10.7271 14.5294 10.1607 13.8363 10.1607ZM2.89855 13.2945C2.36948 13.2945 1.94046 12.862 1.94046 12.3286C1.94046 11.7953 2.36948 11.3628 2.89855 11.3628C3.42762 11.3628 3.85664 11.7953 3.85664 12.3286C3.85664 12.862 3.42762 13.2945 2.89855 13.2945ZM3.37578 10.0082L4.42331 7.46496C4.45636 7.38489 4.53307 7.33323 4.61917 7.33323H11.381C11.4671 7.33323 11.5441 7.38489 11.5769 7.46527L12.6244 10.0085L3.37578 10.0082ZM13.1016 13.2945C12.5725 13.2945 12.1435 12.862 12.1435 12.3286C12.1435 11.7953 12.5725 11.3628 13.1016 11.3628C13.6307 11.3628 14.0597 11.7953 14.0597 12.3286C14.0597 12.862 13.6307 13.2945 13.1016 13.2945Z" fill="#727272"/>
</svg>
