<svg width="34" height="34" viewBox="0 0 34 34" fill="none" xmlns="http://www.w3.org/2000/svg">
<g filter="url(#filter0_d_271_9634)">
<rect x="2" y="2" width="28" height="28" rx="3" fill="#858585" shape-rendering="crispEdges"/>
<rect x="1.5" y="1.5" width="29" height="29" rx="3.5" stroke="white" shape-rendering="crispEdges"/>
<path d="M24.2303 13.2206L22.4264 8.84026C22.1481 8.16443 21.4939 7.72437 20.7679 7.72437H11.2321C10.5065 7.72437 9.85189 8.16486 9.57355 8.84026L7.76967 13.2206C6.79227 13.2206 6 14.0193 6 15.0046V20.2935C6 20.6806 6.31126 20.9944 6.69521 20.9944H7.95224V22.7852C7.95224 23.6085 8.61411 24.2757 9.43075 24.2757C10.2474 24.2757 10.9093 23.6085 10.9093 22.7852V20.9944H21.0908V22.7852C21.0908 23.6085 21.7526 24.2757 22.5693 24.2757C23.3859 24.2757 24.0478 23.6085 24.0478 22.7852V20.9944H25.3048C25.6887 20.9944 26 20.6806 26 20.2935V15.0046C26 14.0193 25.2077 13.2206 24.2303 13.2206ZM8.80608 17.6398C8.05999 17.6398 7.45499 17.0299 7.45499 16.2778C7.45499 15.5257 8.05999 14.9158 8.80608 14.9158C9.55217 14.9158 10.1572 15.5257 10.1572 16.2778C10.1572 17.0299 9.55217 17.6398 8.80608 17.6398ZM9.47906 13.0056L10.9563 9.4191C11.0029 9.30618 11.1111 9.23334 11.2325 9.23334H20.7679C20.8894 9.23334 20.998 9.30618 21.0441 9.41954L22.5214 13.006L9.47906 13.0056ZM23.1943 17.6398C22.4483 17.6398 21.8433 17.0299 21.8433 16.2778C21.8433 15.5257 22.4483 14.9158 23.1943 14.9158C23.9404 14.9158 24.5454 15.5257 24.5454 16.2778C24.5454 17.0299 23.9404 17.6398 23.1943 17.6398Z" fill="white"/>
</g>
<defs>
<filter id="filter0_d_271_9634" x="0" y="0" width="34" height="34" filterUnits="userSpaceOnUse" color-interpolation-filters="sRGB">
<feFlood flood-opacity="0" result="BackgroundImageFix"/>
<feColorMatrix in="SourceAlpha" type="matrix" values="0 0 0 0 0 0 0 0 0 0 0 0 0 0 0 0 0 0 127 0" result="hardAlpha"/>
<feOffset dx="1" dy="1"/>
<feGaussianBlur stdDeviation="1"/>
<feComposite in2="hardAlpha" operator="out"/>
<feColorMatrix type="matrix" values="0 0 0 0 0 0 0 0 0 0 0 0 0 0 0 0 0 0 0.25 0"/>
<feBlend mode="normal" in2="BackgroundImageFix" result="effect1_dropShadow_271_9634"/>
<feBlend mode="normal" in="SourceGraphic" in2="effect1_dropShadow_271_9634" result="shape"/>
</filter>
</defs>
</svg>
