<svg width="40" height="54" viewBox="0 0 40 54" fill="none" xmlns="http://www.w3.org/2000/svg">
<path d="M36.0689 32.7781C38.5385 29.4125 40 25.2443 40 20.7321C40.0031 9.55999 31.0471 0.501465 20.0015 0.501465C8.95596 0.501465 0 9.55999 0 20.7321C0 25.2443 1.46151 29.4125 3.93106 32.7781L3.94025 32.7905C4.18231 33.119 4.43355 33.4351 4.69399 33.7481L20.0015 53.2287L35.3091 33.7481C35.5695 33.4351 35.8208 33.119 36.0628 32.7905L36.072 32.7781H36.0689Z" fill="url(#paint0_linear_271_9642)"/>
<path d="M19.9996 36.8647C29.037 36.8647 36.3633 29.5385 36.3633 20.5011C36.3633 11.4637 29.037 4.13745 19.9996 4.13745C10.9622 4.13745 3.63599 11.4637 3.63599 20.5011C3.63599 29.5385 10.9622 36.8647 19.9996 36.8647Z" fill="white"/>
<path d="M8.89429 15.8806L11.1892 22.8508H11.2869L13.594 15.8806H15.3396L12.2146 24.7185H10.2615L7.14868 15.8806H8.89429Z" fill="black"/>
<path d="M15.7644 15.8806H17.7175L20.342 22.3015H20.4519L23.0764 15.8806H25.0295V24.7185H23.5037V18.6394H23.4182L20.9646 24.6941H19.8293L17.3757 18.615H17.3025V24.7185H15.7644V15.8806Z" fill="black"/>
<path d="M30.8499 18.3098C30.7766 17.553 30.1296 17.1135 29.1775 17.1135C28.1765 17.1135 27.5662 17.6018 27.5662 18.261C27.5662 19.0056 28.3474 19.3108 29.0798 19.4817L29.9099 19.7014C31.2283 20.0066 32.4978 20.7024 32.4978 22.2405C32.4978 23.7908 31.2771 24.8528 29.1531 24.8528C27.0901 24.8528 25.7961 23.864 25.7229 22.1184H27.2854C27.3586 23.0461 28.1399 23.4978 29.1409 23.4978C30.1907 23.4978 30.9109 22.9851 30.9109 22.2283C30.9109 21.5325 30.2639 21.2395 29.3118 20.9954L28.3108 20.739C26.8582 20.3606 25.9548 19.6282 25.9548 18.3586C25.9548 16.7961 27.3464 15.7585 29.2019 15.7585C31.0818 15.7585 32.3513 16.8206 32.3757 18.3098H30.8499Z" fill="black"/>
<defs>
<linearGradient id="paint0_linear_271_9642" x1="20" y1="0.501465" x2="20" y2="53.2287" gradientUnits="userSpaceOnUse">
<stop stop-color="#666666"/>
<stop offset="1" stop-color="#252525"/>
</linearGradient>
</defs>
</svg>
