<svg width="32" height="43" viewBox="0 0 32 43" fill="none" xmlns="http://www.w3.org/2000/svg">
<ellipse cx="22.4881" cy="37.2062" rx="3.26054" ry="8.14165" transform="rotate(53.9087 22.4881 37.2062)" fill="url(#paint0_linear_607_607)" fill-opacity="0.5"/>
<path d="M28.8551 25.8213C30.8308 23.1288 32 19.7943 32 16.1845C32.0024 7.24682 24.8377 0 16.0012 0C7.16476 0 0 7.24682 0 16.1845C0 19.7943 1.16921 23.1288 3.14485 25.8213L3.1522 25.8312C3.34584 26.094 3.54684 26.3469 3.75519 26.5973L16.0012 42.1818L28.2473 26.5973C28.4556 26.3469 28.6566 26.094 28.8502 25.8312L28.8576 25.8213H28.8551Z" fill="#999999"/>
<path d="M15.9996 29.0905C23.2295 29.0905 29.0905 23.2295 29.0905 15.9996C29.0905 8.76969 23.2295 2.90869 15.9996 2.90869C8.76969 2.90869 2.90869 8.76969 2.90869 15.9996C2.90869 23.2295 8.76969 29.0905 15.9996 29.0905Z" fill="url(#paint1_linear_607_607)"/>
<path d="M7.54701 12.6974L9.0994 17.7215H9.15585L10.7082 12.6974H12.4958L10.1908 19.5091H8.06448L5.75 12.6974H7.54701Z" fill="white"/>
<path d="M13.0276 12.6974H15.0128L16.7722 16.9876H16.8474L18.6068 12.6974H20.592V19.5091H19.0302V15.2753H18.9737L17.3179 19.4714H16.3018L14.6459 15.2565H14.5894V19.5091H13.0276V12.6974Z" fill="white"/>
<path d="M25.1129 14.7202C25.0753 14.2215 24.7084 13.9299 24.0498 13.9299C23.4006 13.9299 23.0713 14.2121 23.0619 14.5979C23.0525 15.0212 23.4665 15.2282 24.078 15.3599L24.6707 15.5011C25.9785 15.7927 26.7406 16.4419 26.75 17.5333C26.7406 18.8222 25.7433 19.6031 24.0498 19.6031C22.3563 19.6031 21.2555 18.8317 21.2273 17.2699H22.7702C22.8079 17.9284 23.2971 18.2672 24.031 18.2672C24.7084 18.2672 25.1129 17.9661 25.1223 17.5333C25.1129 17.1381 24.7648 16.9312 24.0122 16.7618L23.2971 16.5924C22.1211 16.3196 21.406 15.7363 21.406 14.7108C21.3966 13.45 22.5162 12.6033 24.0592 12.6033C25.6304 12.6033 26.6371 13.4594 26.6559 14.7202H25.1129Z" fill="white"/>
<defs>
<linearGradient id="paint0_linear_607_607" x1="23.3421" y1="29.5646" x2="23.3945" y2="45.2013" gradientUnits="userSpaceOnUse">
<stop offset="0.1875" stop-opacity="0"/>
<stop offset="0.520833" stop-opacity="0.3"/>
<stop offset="1" stop-color="#545454"/>
</linearGradient>
<linearGradient id="paint1_linear_607_607" x1="15.9996" y1="2.90869" x2="15.9996" y2="29.0905" gradientUnits="userSpaceOnUse">
<stop stop-color="#5520F4"/>
<stop offset="1" stop-color="#2E1A74"/>
</linearGradient>
</defs>
</svg>
