<svg width="41" height="53" viewBox="0 0 41 53" fill="none" xmlns="http://www.w3.org/2000/svg">
<path d="M36.8199 32.2796C39.2895 28.914 40.751 24.7458 40.751 20.2335C40.754 9.06146 31.7981 0.00292969 20.7525 0.00292969C9.70693 0.00292969 0.750977 9.06146 0.750977 20.2335C0.750977 24.7458 2.21249 28.914 4.68204 32.2796L4.69123 32.292C4.93328 32.6205 5.18453 32.9366 5.44496 33.2496L20.7525 52.7302L36.06 33.2496C36.3205 32.9366 36.5717 32.6205 36.8138 32.292L36.823 32.2796H36.8199Z" fill="url(#paint0_linear_271_9636)"/>
<path d="M20.7506 36.3662C29.788 36.3662 37.1142 29.0399 37.1142 20.0026C37.1142 10.9652 29.788 3.63892 20.7506 3.63892C11.7132 3.63892 4.38696 10.9652 4.38696 20.0026C4.38696 29.0399 11.7132 36.3662 20.7506 36.3662Z" fill="black"/>
<path d="M11.9458 22.351H12.0365L14.3414 15.3801H16.0852L12.9688 24.2199H11.0092L7.89282 15.3801H9.64092L11.9458 22.351Z" fill="#70FF00"/>
<path d="M18.4685 15.3801L21.0971 21.8028H21.2007L23.8336 15.3801H25.7803V24.2199H24.2523V18.1382H24.1703L21.7187 24.194H20.5792L18.1232 18.1167H18.0498V24.2199H16.5218V15.3801H18.4685Z" fill="#70FF00"/>
<path d="M31.6096 17.8102C31.5837 17.5599 31.4989 17.3455 31.355 17.1671C31.214 16.9858 31.0226 16.8477 30.7809 16.7527C30.5392 16.6578 30.2586 16.6103 29.9392 16.6103C29.6112 16.6103 29.3263 16.6606 29.0846 16.7613C28.8429 16.8592 28.6573 16.9959 28.5278 17.1714C28.3983 17.344 28.3336 17.5426 28.3336 17.767C28.3307 18.1008 28.4688 18.3613 28.7479 18.5483C29.0271 18.7353 29.3911 18.8821 29.84 18.9886L30.6687 19.1957C31.4312 19.3741 32.0542 19.6662 32.5376 20.0719C33.0211 20.4748 33.2628 21.0302 33.2628 21.738C33.2628 22.256 33.1304 22.7121 32.8657 23.1063C32.601 23.5005 32.2154 23.807 31.7089 24.0257C31.2054 24.2444 30.6068 24.3537 29.9133 24.3537C29.2285 24.3537 28.6328 24.2472 28.1264 24.0343C27.6199 23.8214 27.2257 23.5106 26.9437 23.102C26.6617 22.6905 26.5092 22.1956 26.4862 21.6172H28.0487C28.0717 21.9164 28.1652 22.1697 28.3293 22.3769C28.4933 22.5812 28.7105 22.7351 28.981 22.8387C29.2544 22.9423 29.5608 22.9941 29.9004 22.9941C30.2457 22.9941 30.5522 22.9408 30.8198 22.8344C31.0902 22.7279 31.3003 22.5797 31.4499 22.3898C31.5996 22.197 31.6744 21.9754 31.6744 21.7251C31.6744 21.5064 31.6096 21.3208 31.4802 21.1683C31.3507 21.0158 31.1723 20.8877 30.9449 20.7841C30.7176 20.6805 30.4299 20.5842 30.0817 20.4949L29.076 20.236C27.5048 19.836 26.7207 19.0447 26.7236 17.862C26.7207 17.3498 26.8588 16.8966 27.138 16.5024C27.4171 16.1081 27.8027 15.8031 28.2947 15.5873C28.7897 15.3686 29.345 15.2593 29.9608 15.2593C30.5766 15.2593 31.1233 15.3686 31.601 15.5873C32.0816 15.8031 32.4556 16.1038 32.7232 16.4894C32.9937 16.875 33.1333 17.3153 33.1419 17.8102H31.6096Z" fill="#70FF00"/>
<defs>
<linearGradient id="paint0_linear_271_9636" x1="20.751" y1="0.00292969" x2="20.751" y2="52.7302" gradientUnits="userSpaceOnUse">
<stop stop-color="#666666"/>
<stop offset="1" stop-color="#252525"/>
</linearGradient>
</defs>
</svg>
